<mxfile host="app.diagrams.net" modified="2022-07-01T17:05:34.427Z" agent="5.0 (Windows NT 10.0; Win64; x64) AppleWebKit/537.36 (KHTML, like Gecko) Chrome/103.0.0.0 Safari/537.36" etag="QHl4w-S32t66ky3oqADx" version="20.0.4" type="github">
  <diagram id="jTe92dpSTe3RsPwoJPdz" name="Page-1">
    <mxGraphModel dx="868" dy="450" grid="1" gridSize="10" guides="1" tooltips="1" connect="1" arrows="1" fold="1" page="1" pageScale="1" pageWidth="850" pageHeight="1100" math="0" shadow="0">
      <root>
        <mxCell id="0" />
        <mxCell id="1" parent="0" />
        <mxCell id="9j3UkzVrM6BfzUg-JPx_-1" value="User" style="shape=umlActor;verticalLabelPosition=bottom;verticalAlign=top;html=1;outlineConnect=0;" vertex="1" parent="1">
          <mxGeometry x="160" y="140" width="30" height="60" as="geometry" />
        </mxCell>
        <mxCell id="9j3UkzVrM6BfzUg-JPx_-4" value="" style="endArrow=classic;html=1;rounded=0;" edge="1" parent="1">
          <mxGeometry width="50" height="50" relative="1" as="geometry">
            <mxPoint x="210" y="180" as="sourcePoint" />
            <mxPoint x="300" y="180" as="targetPoint" />
          </mxGeometry>
        </mxCell>
        <mxCell id="9j3UkzVrM6BfzUg-JPx_-5" value="&lt;h1&gt;&lt;font style=&quot;font-size: 9px;&quot;&gt;User request&lt;/font&gt;&lt;/h1&gt;" style="text;html=1;strokeColor=none;fillColor=none;spacing=5;spacingTop=-20;whiteSpace=wrap;overflow=hidden;rounded=0;" vertex="1" parent="1">
          <mxGeometry x="220" y="140" width="100" height="30" as="geometry" />
        </mxCell>
        <mxCell id="9j3UkzVrM6BfzUg-JPx_-6" value="Let&#39;s&amp;nbsp; watch some video on the&amp;nbsp; Internet!" style="shape=callout;whiteSpace=wrap;html=1;perimeter=calloutPerimeter;fontFamily=Times New Roman;fontSize=9;" vertex="1" parent="1">
          <mxGeometry x="150" y="90" width="100" height="60" as="geometry" />
        </mxCell>
        <mxCell id="9j3UkzVrM6BfzUg-JPx_-7" value="" style="ellipse;whiteSpace=wrap;html=1;aspect=fixed;fontFamily=Times New Roman;fontSize=9;align=center;" vertex="1" parent="1">
          <mxGeometry x="330" y="140" width="70" height="70" as="geometry" />
        </mxCell>
        <mxCell id="9j3UkzVrM6BfzUg-JPx_-8" value="Elastic Load Balancer" style="text;html=1;strokeColor=none;fillColor=none;align=center;verticalAlign=middle;whiteSpace=wrap;rounded=0;fontFamily=Times New Roman;fontSize=9;" vertex="1" parent="1">
          <mxGeometry x="335" y="180" width="60" height="30" as="geometry" />
        </mxCell>
        <mxCell id="9j3UkzVrM6BfzUg-JPx_-9" value="" style="shape=image;html=1;verticalLabelPosition=bottom;verticalAlign=top;imageAspect=0;image=img/clipart/Gear_128x128.png;fontFamily=Times New Roman;fontSize=9;" vertex="1" parent="1">
          <mxGeometry x="350" y="150" width="30" height="30" as="geometry" />
        </mxCell>
        <mxCell id="9j3UkzVrM6BfzUg-JPx_-11" value="" style="shape=tape;whiteSpace=wrap;html=1;strokeWidth=2;size=0.19;fontFamily=Times New Roman;fontSize=9;direction=south;" vertex="1" parent="1">
          <mxGeometry x="580" y="102.5" width="80" height="125" as="geometry" />
        </mxCell>
        <mxCell id="9j3UkzVrM6BfzUg-JPx_-12" value="" style="endArrow=classic;html=1;rounded=0;fontFamily=Times New Roman;fontSize=9;" edge="1" parent="1">
          <mxGeometry width="50" height="50" relative="1" as="geometry">
            <mxPoint x="430" y="190" as="sourcePoint" />
            <mxPoint x="560" y="190" as="targetPoint" />
          </mxGeometry>
        </mxCell>
        <mxCell id="9j3UkzVrM6BfzUg-JPx_-13" value="&lt;h1&gt;&lt;font style=&quot;font-size: 10px;&quot;&gt;According to what was defined in the Roles, it&#39;ll manage the request&#39;s to not overload some EC2 that compose the Instance Group.&lt;/font&gt;&lt;/h1&gt;" style="text;html=1;strokeColor=none;fillColor=none;spacing=5;spacingTop=-20;whiteSpace=wrap;overflow=hidden;rounded=0;fontFamily=Times New Roman;fontSize=9;" vertex="1" parent="1">
          <mxGeometry x="425" y="50" width="150" height="112.5" as="geometry" />
        </mxCell>
      </root>
    </mxGraphModel>
  </diagram>
</mxfile>
